<svg xmlns="http://www.w3.org/2000/svg" viewBox="0 0 48 48" id="broken-protection">
    <g>
        <path fill="#7c6f66"
              d="M44 10v8.81A29.86 29.86 0 0 1 24 47 29.86 29.86 0 0 1 4 18.81V10l20-9c-1.94 4.64-.89 2.13-5 12l4-1 1 8 6-13h-4l2.41-4Z"></path>
        <path fill="#ffbe1d"
              d="M41 11.64v8a25.48 25.48 0 0 1-17 24 25.48 25.48 0 0 1-17-24v-8l15.43-6.88L19 13l4-1 1 8 6-13h-4l1-1.62Z"></path>
        <path d="M28 1.7 24.24 8h4.2l-3.88 8.4-.71-5.64-3.16.79L25.5 0h-1.71L3 9.35v9.46a30.91 30.91 0 0 0 20.67 29.13c.42.15.26.14.66 0A30.89 30.89 0 0 0 45 18.81V9.35Zm15 17.11a28.9 28.9 0 0 1-19 27.13A28.92 28.92 0 0 1 5 18.81v-8.16L22.1 3l-4.79 11.5 4.84-1.21 1.29 10.31L31.56 6h-3.8l1-1.74L43 10.65Z"></path>
    </g>
</svg>